<?xml version="1.0" encoding="utf-8"?>
<!-- Generator: Adobe Illustrator 16.0.0, SVG Export Plug-In . SVG Version: 6.00 Build 0)  -->
<!DOCTYPE svg PUBLIC "-//W3C//DTD SVG 1.0//EN" "http://www.w3.org/TR/2001/REC-SVG-20010904/DTD/svg10.dtd">
<svg version="1.0" id="Layer_1" xmlns="http://www.w3.org/2000/svg" xmlns:xlink="http://www.w3.org/1999/xlink" x="0px" y="0px"
	 width="100px" height="100px" viewBox="0 0 100 100" enable-background="new 0 0 100 100" xml:space="preserve">
<path d="M50,10c-22.09,0-40,17.91-40,40c0,22.09,17.91,40,40,40s40-17.91,40-40C90,27.91,72.09,10,50,10z M16.667,50
	c0-12.331,6.712-23.073,16.666-28.838C43.288,26.927,50,37.669,50,50c0,12.328-6.712,23.073-16.667,28.838
	C23.379,73.072,16.667,62.33,16.667,50z M50,83.333c-3.278,0-6.438-0.491-9.431-1.374C50.313,74.668,56.667,63.102,56.667,50
	c0-13.105-6.354-24.671-16.098-31.959c2.992-0.882,6.152-1.374,9.431-1.374c18.408,0,33.333,14.925,33.333,33.333
	C83.333,68.408,68.408,83.333,50,83.333z"/>
</svg>
